<svg width="50" height="50" viewBox="0 0 50 50" fill="none" xmlns="http://www.w3.org/2000/svg">
<path d="M24.9688 50C21.4315 50 18.144 49.3646 15.1061 48.0937C12.0682 46.8229 9.42572 45.0625 7.17853 42.8125C4.93134 40.5625 3.17312 37.9167 1.90387 34.875C0.634624 31.8333 0 28.5417 0 25C0 21.5 0.634624 18.2292 1.90387 15.1875C3.17312 12.1458 4.93134 9.5 7.17853 7.25C9.42572 5 12.0682 3.22917 15.1061 1.9375C18.144 0.645834 21.4315 0 24.9688 0C28.0899 0 31.0029 0.5 33.7079 1.5C36.4128 2.5 38.8473 3.875 41.0112 5.625L38.3271 8.3125C36.496 6.85417 34.4569 5.72917 32.2097 4.9375C29.9625 4.14583 27.5489 3.75 24.9688 3.75C18.9347 3.75 13.8889 5.78125 9.83146 9.84375C5.77403 13.9062 3.74532 18.9583 3.74532 25C3.74532 31.0417 5.77403 36.0938 9.83146 40.1562C13.8889 44.2188 18.9347 46.25 24.9688 46.25C31.0029 46.25 36.0487 44.2188 40.1061 40.1562C44.1635 36.0938 46.1923 31.0417 46.1923 25C46.1923 23.75 46.0986 22.5313 45.9114 21.3438C45.7241 20.1563 45.4432 19 45.0687 17.875L47.9401 15C48.6059 16.5417 49.1053 18.1458 49.4382 19.8125C49.7711 21.4792 49.9376 23.2083 49.9376 25C49.9376 28.5417 49.2926 31.8333 48.0025 34.875C46.7124 37.9167 44.9438 40.5625 42.6966 42.8125C40.4494 45.0625 37.8069 46.8229 34.769 48.0937C31.7312 49.3646 28.4644 50 24.9688 50ZM21.2859 36.375L10.9863 26L13.7953 23.1875L21.2859 30.6875L47.1286 4.8125L50 7.625L21.2859 36.375Z" fill="white"/>
</svg>
