<svg width="15" height="15" viewBox="0 0 15 15" fill="none" xmlns="http://www.w3.org/2000/svg">
<path d="M2.36719 15C1.97656 15 1.64453 14.8785 1.37109 14.6354C1.09766 14.3924 0.960938 14.0972 0.960938 13.75V1.875H0V0.625H4.40625V0H10.5938V0.625H15V1.875H14.0391V13.75C14.0391 14.0833 13.8984 14.375 13.6172 14.625C13.3359 14.875 13.0078 15 12.6328 15H2.36719ZM12.6328 1.875H2.36719V13.75H12.6328V1.875ZM4.85156 11.9583H6.25781V3.64583H4.85156V11.9583ZM8.74219 11.9583H10.1484V3.64583H8.74219V11.9583ZM2.36719 1.875V13.75V1.875Z" fill="#B2B2B2"/>
</svg>
